<svg aria-hidden="true" style="position: absolute; width: 33px; height: 33px; overflow: hidden;" version="1.1" xmlns="http://www.w3.org/2000/svg" xmlns:xlink="http://www.w3.org/1999/xlink">
<defs>
<symbol id="icon-facebook" viewBox="0 0 32 32">
<path fill="#f53838" style="fill: var(--color1, #f53838)" d="M31.313 16c0 8.578-6.954 15.531-15.531 15.531s-15.531-6.954-15.531-15.531c0-8.578 6.954-15.531 15.531-15.531s15.531 6.954 15.531 15.531z"></path>
<path fill="#fff" style="fill: var(--color2, #fff)" d="M15.781 0.469c-8.578 0-15.531 6.954-15.531 15.531s6.954 15.531 15.531 15.531c8.578 0 15.531-6.954 15.531-15.531s-6.954-15.531-15.531-15.531zM19.46 11.201h-2.335c-0.277 0-0.584 0.364-0.584 0.848v1.686h2.92l-0.442 2.404h-2.479v7.217h-2.755v-7.217h-2.5v-2.404h2.5v-1.414c0-2.029 1.408-3.677 3.339-3.677h2.335v2.558z"></path>
</symbol>
<symbol id="icon-twitter" viewBox="0 0 32 32">
<path fill="#f53838" style="fill: var(--color1, #f53838)" d="M31.75 16c0 8.698-7.051 15.75-15.75 15.75s-15.75-7.051-15.75-15.75c0-8.698 7.051-15.75 15.75-15.75s15.75 7.051 15.75 15.75z"></path>
<path fill="#fff" style="fill: var(--color2, #fff)" d="M16 0.25c-8.699 0-15.75 7.051-15.75 15.75s7.051 15.75 15.75 15.75c8.699 0 15.75-7.051 15.75-15.75s-7.051-15.75-15.75-15.75zM22.407 13.152c0.007 0.135 0.008 0.269 0.008 0.4 0 4.102-3.119 8.828-8.825 8.828-1.686 0.003-3.337-0.481-4.755-1.395 0.241 0.029 0.489 0.041 0.74 0.041 1.454 0 2.791-0.494 3.852-1.327-0.647-0.013-1.274-0.227-1.793-0.613s-0.905-0.924-1.104-1.54c0.464 0.088 0.943 0.070 1.399-0.054-0.702-0.142-1.334-0.523-1.787-1.077s-0.701-1.249-0.702-1.965v-0.038c0.418 0.231 0.897 0.372 1.406 0.389-0.658-0.438-1.124-1.111-1.303-1.882s-0.056-1.58 0.343-2.263c0.779 0.958 1.751 1.742 2.852 2.301s2.308 0.88 3.541 0.943c-0.157-0.666-0.089-1.364 0.192-1.988s0.761-1.136 1.363-1.459c0.603-0.323 1.295-0.437 1.97-0.326s1.294 0.443 1.761 0.942c0.694-0.137 1.36-0.392 1.969-0.753-0.231 0.719-0.716 1.329-1.363 1.718 0.615-0.074 1.215-0.239 1.782-0.491-0.416 0.623-0.94 1.167-1.547 1.606z"></path>
</symbol>
<symbol id="icon-instagram" viewBox="0 0 32 32">
<path fill="#f53838" style="fill: var(--color1, #f53838)" d="M31.313 16c0 8.578-6.954 15.531-15.531 15.531s-15.531-6.954-15.531-15.531c0-8.578 6.954-15.531 15.531-15.531s15.531 6.954 15.531 15.531z"></path>
<path fill="#fff" style="fill: var(--color2, #fff)" d="M20.635 16c0 1.287-0.511 2.522-1.421 3.432s-2.145 1.421-3.432 1.421-2.522-0.511-3.432-1.421-1.421-2.145-1.421-3.432c0-0.277 0.029-0.547 0.079-0.809h-1.697v6.467c0 0.45 0.364 0.814 0.814 0.814h11.317c0.215-0 0.422-0.086 0.575-0.239s0.237-0.359 0.237-0.575v-6.467h-1.697c0.050 0.262 0.079 0.532 0.079 0.809zM15.781 19.236c0.425-0 0.846-0.084 1.239-0.247s0.749-0.402 1.050-0.701c0.301-0.301 0.539-0.658 0.701-1.050s0.246-0.814 0.246-1.239c-0-0.425-0.084-0.846-0.247-1.239s-0.402-0.749-0.701-1.050c-0.301-0.301-0.658-0.539-1.050-0.701s-0.814-0.246-1.239-0.246c-0.858 0-1.681 0.342-2.289 0.949s-0.947 1.431-0.947 2.289 0.342 1.681 0.949 2.289c0.607 0.607 1.431 0.948 2.289 0.947zM19.664 12.602h1.94c0.129 0 0.252-0.051 0.344-0.142s0.143-0.214 0.143-0.343v-1.94c0-0.13-0.051-0.253-0.142-0.344s-0.215-0.142-0.344-0.142h-1.94c-0.13 0-0.253 0.051-0.344 0.142s-0.142 0.215-0.142 0.344v1.94c0.002 0.266 0.22 0.485 0.487 0.485zM15.781 0.469c-4.119 0-8.070 1.637-10.983 4.549s-4.549 6.863-4.549 10.983 1.636 8.070 4.549 10.983c2.912 2.912 6.863 4.549 10.983 4.549 2.040 0 4.059-0.402 5.943-1.182s3.597-1.924 5.038-3.367c1.442-1.442 2.586-3.155 3.367-5.038 0.78-1.885 1.182-3.904 1.182-5.943s-0.402-4.059-1.182-5.943c-0.78-1.885-1.924-3.597-3.367-5.038-1.442-1.442-3.155-2.586-5.038-3.367s-3.904-1.182-5.943-1.182zM23.871 22.292c0 0.988-0.809 1.798-1.798 1.798h-12.584c-0.988 0-1.798-0.809-1.798-1.798v-12.584c0-0.988 0.809-1.798 1.798-1.798h12.584c0.988 0 1.798 0.809 1.798 1.798v12.584z"></path>
</symbol>
<symbol id="icon-user" viewBox="0 0 31 32">
<path fill="#ffecec" style="fill: var(--color3, #ffecec)" d="M15.714 0.028c8.679 0 15.714 7.036 15.714 15.714s-7.036 15.714-15.714 15.714c-8.679 0-15.714-7.036-15.714-15.714s7.036-15.714 15.714-15.714z"></path>
<path fill="#f53838" style="fill: var(--color1, #f53838)" d="M15.714 15.057c0.546 0 1.069-0.217 1.455-0.603s0.602-0.909 0.602-1.455-0.217-1.069-0.602-1.455c-0.386-0.386-0.909-0.602-1.455-0.602s-1.069 0.217-1.455 0.602c-0.386 0.386-0.602 0.909-0.602 1.455s0.217 1.069 0.602 1.455c0.386 0.386 0.909 0.602 1.455 0.602zM12.799 21.228c-1.041 0-1.918-0.875-1.52-1.837 0.241-0.582 0.595-1.111 1.040-1.557s0.975-0.799 1.557-1.041c0.582-0.241 1.207-0.365 1.837-0.365s1.255 0.124 1.837 0.365c0.582 0.241 1.112 0.595 1.557 1.041s0.799 0.975 1.041 1.557c0.398 0.962-0.479 1.837-1.52 1.837h-5.83z"></path>
</symbol>
<symbol id="icon-location" viewBox="0 0 32 32">
<path fill="#ffecec" style="fill: var(--color3, #ffecec)" d="M16 0.028c8.679 0 15.714 7.036 15.714 15.714s-7.036 15.714-15.714 15.714c-8.679 0-15.714-7.036-15.714-15.714s7.036-15.714 15.714-15.714z"></path>
<path fill="#f53838" style="fill: var(--color1, #f53838)" d="M20 14.028c0-0.525-0.104-1.045-0.304-1.531s-0.496-0.926-0.867-1.298c-0.371-0.371-0.812-0.666-1.298-0.867s-1.005-0.304-1.531-0.304-1.045 0.104-1.531 0.305c-0.485 0.201-0.926 0.496-1.298 0.867s-0.666 0.812-0.867 1.298c-0.201 0.485-0.304 1.005-0.304 1.531 0 0.793 0.234 1.53 0.631 2.151h-0.005c1.349 2.111 3.373 5.277 3.373 5.277l3.373-5.277h-0.004c0.412-0.642 0.631-1.389 0.631-2.151zM16 15.742c-0.455 0-0.891-0.181-1.212-0.502s-0.502-0.758-0.502-1.212c0-0.455 0.181-0.891 0.502-1.212s0.758-0.502 1.212-0.502c0.455 0 0.891 0.181 1.212 0.502s0.502 0.758 0.502 1.212c0 0.455-0.181 0.891-0.502 1.212s-0.758 0.502-1.212 0.502z"></path>
</symbol>
<symbol id="icon-server" viewBox="0 0 31 32">
<path fill="#ffecec" style="fill: var(--color3, #ffecec)" d="M15.714 0.028c8.679 0 15.714 7.036 15.714 15.714s-7.036 15.714-15.714 15.714c-8.679 0-15.714-7.036-15.714-15.714s7.036-15.714 15.714-15.714z"></path>
<path fill="#f53838" style="fill: var(--color1, #f53838)" d="M20.286 10.6h-9.143c-0.303 0-0.594 0.12-0.808 0.335s-0.335 0.505-0.335 0.808v2.286c0 0.303 0.12 0.594 0.335 0.808s0.505 0.335 0.808 0.335h9.143c0.303 0 0.594-0.12 0.808-0.335s0.335-0.505 0.335-0.808v-2.286c0-0.303-0.12-0.594-0.335-0.808s-0.505-0.335-0.808-0.335zM17.429 12.885c0 0.316-0.256 0.571-0.571 0.571s-0.571-0.256-0.571-0.571c0-0.316 0.256-0.571 0.571-0.571s0.571 0.256 0.571 0.571zM19.714 12.885c0 0.316-0.256 0.571-0.571 0.571s-0.571-0.256-0.571-0.571c0-0.316 0.256-0.571 0.571-0.571s0.571 0.256 0.571 0.571zM20.286 16.314h-9.143c-0.303 0-0.594 0.12-0.808 0.335s-0.335 0.505-0.335 0.808v2.286c0 0.303 0.12 0.594 0.335 0.808s0.505 0.335 0.808 0.335h9.143c0.303 0 0.594-0.12 0.808-0.335s0.335-0.505 0.335-0.808v-2.286c0-0.303-0.12-0.594-0.335-0.808s-0.505-0.335-0.808-0.335zM17.429 18.6c0 0.316-0.256 0.571-0.571 0.571s-0.571-0.256-0.571-0.571c0-0.316 0.256-0.571 0.571-0.571s0.571 0.256 0.571 0.571zM19.714 18.6c0 0.316-0.256 0.571-0.571 0.571s-0.571-0.256-0.571-0.571c0-0.316 0.256-0.571 0.571-0.571s0.571 0.256 0.571 0.571z"></path>
</symbol>
<symbol id="icon-line" viewBox="0 0 1 32">
<path fill="none" stroke="#eeeff2" style="stroke: var(--color4, #eeeff2)" stroke-linejoin="miter" stroke-linecap="round" stroke-miterlimit="4" stroke-width="0.4961" d="M0.372 0.437v31.15"></path>
</symbol>
<symbol id="icon-logo" viewBox="0 0 129 32">
<path fill="#0b132a" style="fill: var(--color5, #0b132a)" d="M40.683 21.722c-0.115 0-0.213-0.040-0.294-0.121s-0.121-0.179-0.121-0.294v-11.278c0-0.127 0.040-0.225 0.121-0.294 0.081-0.081 0.179-0.121 0.294-0.121h1.626c0.127 0 0.225 0.040 0.294 0.121 0.081 0.069 0.121 0.167 0.121 0.294v9.617h5.483c0.127 0 0.231 0.040 0.311 0.121s0.121 0.179 0.121 0.294v1.245c0 0.115-0.040 0.213-0.121 0.294s-0.184 0.121-0.311 0.121h-7.524zM52.723 21.895c-0.588 0-1.13-0.115-1.626-0.346-0.484-0.242-0.871-0.565-1.159-0.969-0.277-0.404-0.415-0.848-0.415-1.332 0-0.784 0.317-1.418 0.951-1.903s1.505-0.813 2.612-0.986l2.37-0.346v-0.363c0-0.496-0.127-0.871-0.381-1.124s-0.657-0.381-1.211-0.381c-0.381 0-0.686 0.069-0.917 0.208s-0.421 0.283-0.571 0.432c-0.138 0.138-0.231 0.231-0.277 0.277-0.046 0.138-0.133 0.208-0.259 0.208h-1.349c-0.104 0-0.196-0.035-0.277-0.104-0.069-0.069-0.104-0.161-0.104-0.277 0.011-0.288 0.15-0.611 0.415-0.969 0.277-0.369 0.698-0.686 1.263-0.951 0.565-0.277 1.263-0.415 2.093-0.415 1.361 0 2.352 0.306 2.975 0.917s0.934 1.413 0.934 2.404v5.431c0 0.115-0.040 0.213-0.121 0.294-0.069 0.081-0.167 0.121-0.294 0.121h-1.436c-0.115 0-0.213-0.040-0.294-0.121s-0.121-0.179-0.121-0.294v-0.675c-0.254 0.369-0.611 0.675-1.072 0.917-0.461 0.231-1.038 0.346-1.73 0.346zM53.311 20.235c0.634 0 1.153-0.208 1.557-0.623s0.605-1.015 0.605-1.799v-0.346l-1.73 0.277c-1.326 0.208-1.989 0.651-1.989 1.332 0 0.369 0.15 0.657 0.45 0.865 0.311 0.196 0.68 0.294 1.107 0.294zM63.435 21.895c-0.876 0-1.609-0.133-2.197-0.398s-1.026-0.571-1.315-0.917c-0.277-0.357-0.415-0.663-0.415-0.917 0-0.115 0.035-0.208 0.104-0.277 0.081-0.069 0.173-0.104 0.277-0.104h1.418c0.092 0 0.173 0.046 0.242 0.138 0.058 0.046 0.184 0.156 0.381 0.329 0.208 0.173 0.438 0.311 0.692 0.415 0.265 0.092 0.553 0.138 0.865 0.138 0.461 0 0.836-0.087 1.124-0.259 0.288-0.184 0.432-0.444 0.432-0.778 0-0.231-0.069-0.415-0.208-0.553-0.127-0.15-0.363-0.283-0.709-0.398-0.334-0.127-0.842-0.265-1.522-0.415-0.98-0.208-1.707-0.525-2.179-0.951-0.461-0.427-0.692-0.992-0.692-1.695 0-0.461 0.138-0.894 0.415-1.297 0.277-0.415 0.686-0.75 1.228-1.003 0.553-0.265 1.211-0.398 1.972-0.398 0.784 0 1.459 0.127 2.024 0.381 0.565 0.242 0.992 0.536 1.28 0.882 0.3 0.346 0.45 0.652 0.45 0.917 0 0.104-0.040 0.196-0.121 0.277-0.069 0.069-0.156 0.104-0.259 0.104h-1.297c-0.127 0-0.225-0.046-0.294-0.138-0.081-0.058-0.213-0.161-0.398-0.311-0.173-0.161-0.369-0.288-0.588-0.381s-0.484-0.138-0.796-0.138c-0.427 0-0.755 0.092-0.986 0.277s-0.346 0.427-0.346 0.726c0 0.208 0.052 0.381 0.156 0.519 0.115 0.138 0.34 0.271 0.675 0.398 0.334 0.115 0.836 0.236 1.505 0.363 2.076 0.404 3.114 1.309 3.114 2.716 0 0.819-0.357 1.482-1.072 1.989-0.703 0.507-1.689 0.761-2.958 0.761zM69.665 21.722c-0.115 0-0.213-0.040-0.294-0.121s-0.121-0.179-0.121-0.294v-11.451c0-0.127 0.040-0.225 0.121-0.294 0.081-0.081 0.179-0.121 0.294-0.121h1.453c0.127 0 0.225 0.040 0.294 0.121 0.081 0.069 0.121 0.167 0.121 0.294v11.451c0 0.115-0.040 0.213-0.121 0.294-0.069 0.081-0.167 0.121-0.294 0.121h-1.453zM77.719 21.895c-1.292 0-2.318-0.369-3.079-1.107-0.75-0.738-1.147-1.787-1.194-3.148l-0.017-0.432c0-1.441 0.375-2.577 1.124-3.408 0.761-0.83 1.81-1.245 3.148-1.245 1.372 0 2.427 0.415 3.165 1.245 0.749 0.83 1.124 1.937 1.124 3.321v0.363c0 0.115-0.040 0.213-0.121 0.294s-0.185 0.121-0.311 0.121h-5.743v0.138c0.023 0.646 0.196 1.182 0.519 1.609 0.334 0.415 0.79 0.623 1.367 0.623 0.657 0 1.194-0.265 1.609-0.796 0.104-0.127 0.184-0.202 0.242-0.225 0.058-0.035 0.156-0.052 0.294-0.052h1.522c0.104 0 0.19 0.029 0.259 0.087 0.081 0.058 0.121 0.138 0.121 0.242 0 0.277-0.167 0.605-0.502 0.986-0.323 0.369-0.79 0.692-1.401 0.969s-1.32 0.415-2.128 0.415zM79.605 16.429v-0.035c0-0.68-0.173-1.222-0.519-1.626-0.334-0.415-0.796-0.623-1.384-0.623s-1.049 0.208-1.384 0.623c-0.334 0.404-0.502 0.946-0.502 1.626v0.035h3.788zM87.252 21.895c-0.876 0-1.608-0.133-2.196-0.398s-1.026-0.571-1.315-0.917c-0.277-0.357-0.415-0.663-0.415-0.917 0-0.115 0.035-0.208 0.104-0.277 0.081-0.069 0.173-0.104 0.277-0.104h1.418c0.092 0 0.173 0.046 0.242 0.138 0.058 0.046 0.184 0.156 0.381 0.329 0.208 0.173 0.438 0.311 0.692 0.415 0.265 0.092 0.553 0.138 0.864 0.138 0.462 0 0.836-0.087 1.124-0.259 0.289-0.184 0.432-0.444 0.432-0.778 0-0.231-0.069-0.415-0.208-0.553-0.126-0.15-0.363-0.283-0.709-0.398-0.334-0.127-0.841-0.265-1.522-0.415-0.98-0.208-1.707-0.525-2.179-0.951-0.461-0.427-0.692-0.992-0.692-1.695 0-0.461 0.138-0.894 0.415-1.297 0.277-0.415 0.686-0.75 1.228-1.003 0.553-0.265 1.211-0.398 1.971-0.398 0.784 0 1.459 0.127 2.024 0.381 0.566 0.242 0.992 0.536 1.28 0.882 0.3 0.346 0.45 0.652 0.45 0.917 0 0.104-0.040 0.196-0.121 0.277-0.069 0.069-0.156 0.104-0.259 0.104h-1.297c-0.126 0-0.225-0.046-0.294-0.138-0.080-0.058-0.213-0.161-0.398-0.311-0.173-0.161-0.368-0.288-0.588-0.381s-0.484-0.138-0.796-0.138c-0.426 0-0.755 0.092-0.986 0.277s-0.346 0.427-0.346 0.726c0 0.208 0.052 0.381 0.156 0.519 0.115 0.138 0.34 0.271 0.674 0.398 0.335 0.115 0.836 0.236 1.505 0.363 2.076 0.404 3.114 1.309 3.114 2.716 0 0.819-0.357 1.482-1.072 1.989-0.703 0.507-1.689 0.761-2.958 0.761zM96.545 21.722c-0.196 0-0.358-0.046-0.484-0.138-0.116-0.104-0.196-0.231-0.242-0.381l-3.494-11.070-0.035-0.156c0-0.092 0.035-0.173 0.104-0.242 0.080-0.081 0.173-0.121 0.277-0.121h2.266c0.173 0 0.311 0.052 0.415 0.156 0.115 0.092 0.19 0.196 0.225 0.311l2.352 7.818 2.37-7.818c0.035-0.127 0.104-0.236 0.208-0.329 0.115-0.092 0.259-0.138 0.432-0.138h2.266c0.104 0 0.19 0.040 0.259 0.121 0.069 0.069 0.104 0.15 0.104 0.242 0 0.058-0.006 0.11-0.017 0.156l-3.511 11.070c-0.035 0.15-0.116 0.277-0.242 0.381-0.116 0.092-0.272 0.138-0.467 0.138h-2.785zM105.578 21.722c-0.115 0-0.219-0.040-0.311-0.121-0.080-0.092-0.121-0.196-0.121-0.311v-11.226c0-0.127 0.041-0.231 0.121-0.311 0.080-0.092 0.184-0.138 0.311-0.138h4.895c1.499 0 2.675 0.34 3.529 1.021s1.28 1.678 1.28 2.992c0 1.315-0.426 2.301-1.28 2.958-0.854 0.646-2.030 0.969-3.529 0.969h-1.972v3.736c0 0.115-0.041 0.219-0.121 0.311-0.080 0.081-0.184 0.121-0.311 0.121h-2.491zM110.387 15.080c0.473 0 0.841-0.121 1.107-0.363 0.277-0.254 0.415-0.623 0.415-1.107 0-0.45-0.127-0.813-0.381-1.090-0.242-0.277-0.623-0.415-1.142-0.415h-1.937v2.975h1.937zM117.318 21.722c-0.115 0-0.219-0.040-0.311-0.121-0.080-0.092-0.121-0.196-0.121-0.311v-11.226c0-0.127 0.041-0.231 0.121-0.311 0.080-0.092 0.184-0.138 0.311-0.138h1.955c0.266 0 0.461 0.11 0.588 0.329l4.082 6.452v-6.331c0-0.127 0.041-0.231 0.121-0.311 0.080-0.092 0.184-0.138 0.311-0.138h2.197c0.127 0 0.231 0.046 0.311 0.138 0.080 0.081 0.121 0.184 0.121 0.311v11.209c0 0.127-0.041 0.236-0.121 0.329-0.080 0.081-0.184 0.121-0.311 0.121h-1.955c-0.266 0-0.461-0.11-0.588-0.329l-4.065-6.192v6.089c0 0.127-0.046 0.231-0.138 0.311-0.080 0.081-0.184 0.121-0.311 0.121h-2.197z"></path>
<path fill="#f53838" style="fill: var(--color1, #f53838)" d="M26.938 11.803l-0.019-0.019c-0.001-0.001-0.003-0.002-0.003-0.004l-11.78-11.78-11.78 11.78c-0.001 0.001-0.003 0.004-0.003 0.004l-0.019 0.019c-1.801 1.811-2.946 4.173-3.251 6.709s0.246 5.102 1.567 7.289c1.32 2.187 3.334 3.87 5.72 4.781s5.009 0.998 7.451 0.248c0.205-0.063 0.425-0.063 0.631 0 2.442 0.75 5.064 0.663 7.451-0.248s4.4-2.594 5.72-4.781c1.32-2.187 1.872-4.752 1.567-7.289s-1.449-4.898-3.25-6.709zM7.544 19.572c-0.057 0.057-0.103 0.125-0.134 0.2s-0.047 0.155-0.047 0.236c0.021 2.079 0.609 4.113 1.7 5.883 0.025 0.040 0.036 0.087 0.033 0.134s-0.022 0.092-0.052 0.128c-0.031 0.036-0.072 0.061-0.117 0.073s-0.094 0.008-0.138-0.010c-0.82-0.345-1.565-0.847-2.194-1.476-1.288-1.288-2.012-3.034-2.013-4.855s0.721-3.568 2.006-4.858l8.547-8.546 8.547 8.546c1.286 1.289 2.008 3.037 2.007 4.858s-0.725 3.568-2.013 4.855c-0.628 0.63-1.373 1.131-2.193 1.476-0.044 0.018-0.092 0.021-0.138 0.010s-0.087-0.037-0.117-0.073c-0.030-0.036-0.049-0.081-0.052-0.128s0.008-0.094 0.033-0.134c1.091-1.77 1.679-3.804 1.7-5.883 0-0.081-0.016-0.161-0.047-0.236s-0.077-0.143-0.134-0.2l-4.043-4.288c-0.040-0.034-0.091-0.052-0.143-0.052s-0.103 0.018-0.143 0.052c-0.040 0.033-0.067 0.080-0.077 0.132s-0 0.105 0.025 0.15c1.57 2.841 0.22 6.922-2.032 9.174l-0.012 0.012c-0.311 0.307-0.73 0.48-1.167 0.48s-0.857-0.173-1.167-0.48l-0.011-0.011c-2.252-2.252-3.602-6.332-2.031-9.173 0.026-0.046 0.035-0.099 0.025-0.15s-0.037-0.098-0.077-0.132c-0.040-0.034-0.091-0.052-0.143-0.052s-0.103 0.018-0.143 0.052l-4.043 4.287z"></path>
</symbol>
<symbol id="icon-check" viewBox="0 0 32 32">
<path fill="#2fab73" style="fill: var(--color1, #2fab73)" d="M15.516 3.263c-7.058 0-12.8 5.742-12.8 12.8s5.742 12.8 12.8 12.8c7.058 0 12.8-5.742 12.8-12.8s-5.742-12.8-12.8-12.8zM12.957 21.712l-3.847-3.839c-0.5-0.499-0.501-1.309-0.002-1.809s1.31-0.502 1.81-0.002l2.037 2.033 5.871-5.871c0.5-0.5 1.31-0.5 1.81 0s0.5 1.31 0 1.81l-7.679 7.679z"></path>
</symbol>
<symbol id="icon-reddit" viewBox="0 0 84 32">
<path fill="#dde0e4" style="fill: #dde0e4" d="M78.009 11.476c0 1.015-0.823 1.838-1.838 1.838s-1.838-0.823-1.838-1.838c0-1.015 0.823-1.838 1.838-1.838s1.838 0.823 1.838 1.838z"></path>
<path fill="#dde0e4" style="fill: #dde0e4" d="M49.925 19.311c0.902 0 1.421-0.676 1.387-1.335-0.011-0.271-0.042-0.527-0.092-0.777l0.005 0.031c-0.555-2.392-2.496-4.161-4.802-4.161-2.739 0-4.958 2.479-4.958 5.53s2.219 5.53 4.958 5.53c1.716 0 2.947-0.624 3.831-1.612 0.433-0.485 0.347-1.231-0.174-1.595-0.433-0.295-0.971-0.191-1.369 0.139-0.381 0.33-1.109 0.988-2.288 0.988-1.387 0-2.565-1.196-2.825-2.774h6.327zM46.407 15.168c1.248 0 2.323 0.971 2.722 2.306h-5.443c0.399-1.352 1.473-2.306 2.722-2.306zM41.57 14.162c0-0.52-0.381-0.936-0.867-1.023-1.508-0.225-2.93 0.329-3.744 1.352v-0.139c0-0.641-0.52-1.040-1.040-1.040-0.574 0.002-1.038 0.466-1.040 1.040v8.495c0 0.555 0.416 1.040 0.971 1.075 0.607 0.035 1.11-0.433 1.11-1.040v-4.386c0-1.941 1.456-3.536 3.467-3.311h0.208c0.52-0.035 0.936-0.486 0.936-1.023zM77.211 15.272c-0.002-0.574-0.466-1.038-1.040-1.040h-0c-0.574 0.002-1.038 0.466-1.040 1.040v7.61c0.002 0.574 0.466 1.038 1.040 1.040h0c0.574-0.002 1.038-0.466 1.040-1.040v-0zM61.748 9.517c-0.002-0.574-0.466-1.039-1.040-1.040h-0c-0.574 0.002-1.038 0.466-1.040 1.040v4.629c-0.711-0.711-1.595-1.058-2.653-1.058-2.739 0-4.958 2.479-4.958 5.53s2.219 5.53 4.958 5.53c1.058 0 1.959-0.364 2.67-1.075 0.087 0.486 0.52 0.849 1.023 0.849 0.574-0.002 1.038-0.466 1.040-1.040v-0zM57.033 22.085c-1.595 0-2.878-1.543-2.878-3.467 0-1.907 1.283-3.467 2.878-3.467s2.878 1.543 2.878 3.467-1.3 3.467-2.878 3.467zM72.6 9.517c-0.002-0.574-0.466-1.039-1.040-1.040h-0c-0.574 0.002-1.038 0.466-1.040 1.040v4.629c-0.711-0.711-1.595-1.058-2.652-1.058-2.739 0-4.958 2.479-4.958 5.53s2.219 5.53 4.958 5.53c1.058 0 1.959-0.364 2.67-1.075 0.087 0.486 0.52 0.849 1.023 0.849 0.574-0.002 1.038-0.466 1.040-1.040v-0zM67.868 22.085c-1.595 0-2.877-1.543-2.877-3.467 0-1.907 1.282-3.467 2.877-3.467s2.878 1.543 2.878 3.467-1.283 3.467-2.878 3.467zM82.481 22.899v-7.732h0.919c0.485 0 0.919-0.364 0.953-0.867 0.035-0.537-0.398-0.988-0.919-0.988h-0.954v-1.456c0-0.555-0.416-1.040-0.971-1.075-0.607-0.035-1.109 0.433-1.109 1.040v1.508h-0.867c-0.485 0-0.919 0.364-0.953 0.867-0.035 0.537 0.399 0.988 0.919 0.988h0.884v7.732c0.002 0.574 0.466 1.038 1.040 1.040h0c0.607-0.035 1.057-0.485 1.057-1.057z"></path>
<path fill="#dde0e4" style="fill: #dde0e4" d="M29.054 16c0 8.023-6.504 14.527-14.527 14.527s-14.527-6.504-14.527-14.527c0-8.023 6.504-14.527 14.527-14.527s14.527 6.504 14.527 14.527z"></path>
<path fill="#dde0e4" style="fill: #dde0e4" d="M24.217 16c0-0.001 0-0.002 0-0.003 0-1.166-0.946-2.112-2.112-2.112-0.001 0-0.002 0-0.003 0h0c-0.572 0-1.092 0.225-1.473 0.589-1.456-1.040-3.45-1.716-5.669-1.803l0.971-4.542 3.155 0.676c0.038 0.803 0.699 1.439 1.507 1.439 0.833 0 1.509-0.675 1.509-1.509v-0c-0.001-0.833-0.675-1.508-1.508-1.508h-0c-0.592 0.002-1.103 0.344-1.348 0.841l-0.004 0.009-3.519-0.745c-0.104-0.017-0.208 0-0.278 0.052-0.087 0.052-0.139 0.139-0.156 0.243l-1.075 5.062c-2.253 0.069-4.282 0.745-5.755 1.803-0.381-0.365-0.9-0.589-1.47-0.589-0.001 0-0.002 0-0.003 0h0c-0.001 0-0.002 0-0.003 0-1.166 0-2.112 0.946-2.112 2.112 0 0.001 0 0.002 0 0.003v-0c0 0.867 0.52 1.595 1.248 1.924-0.033 0.189-0.052 0.406-0.052 0.628 0 0.005 0 0.009 0 0.014v-0.001c0 3.259 3.796 5.911 8.477 5.911s8.477-2.635 8.477-5.911c0-0.208-0.017-0.434-0.052-0.641 0.742-0.345 1.248-1.084 1.248-1.942v-0zM9.69 17.508c0.001-0.833 0.676-1.508 1.508-1.508h0c0.832 0 1.508 0.676 1.508 1.508s-0.676 1.508-1.508 1.508c-0.832 0.017-1.508-0.676-1.508-1.508zM18.133 21.513c-1.040 1.040-3.016 1.11-3.588 1.11-0.589 0-2.566-0.087-3.589-1.11-0.072-0.070-0.117-0.169-0.117-0.277s0.045-0.207 0.117-0.277l0-0c0.070-0.072 0.169-0.117 0.277-0.117s0.207 0.045 0.277 0.117l0 0c0.659 0.659 2.046 0.884 3.034 0.884s2.392-0.225 3.034-0.884c0.070-0.072 0.169-0.117 0.277-0.117s0.207 0.045 0.277 0.117l0 0c0.065 0.074 0.104 0.171 0.104 0.277s-0.039 0.204-0.104 0.278l0-0zM17.855 19.034c-0.832 0-1.508-0.676-1.508-1.508s0.676-1.508 1.508-1.508c0.833 0 1.508 0.675 1.508 1.508v0c0 0.815-0.676 1.508-1.508 1.508z"></path>
</symbol>
<symbol id="icon-netflix" viewBox="0 0 118 32">
<path fill="#dde0e4" style="fill: #dde0e4" d="M111.847 15.233l6.321 16.735c-1.863-0.266-3.725-0.599-5.621-0.9l-3.561-9.247-3.659 8.484c-1.796-0.3-3.56-0.4-5.356-0.633l6.421-14.638-5.823-15.003h5.39l3.26 8.383 3.494-8.383h5.455zM96.313 0.031h-4.891v29.010c1.597 0.1 3.26 0.166 4.891 0.365zM87.197 28.708c-4.457-0.299-8.916-0.564-13.473-0.665v-28.011h4.99v23.288c2.862 0.066 5.722 0.298 8.484 0.431zM68.399 11.377v4.99h-6.82v11.344h-4.923v-27.679h13.973v4.99h-9.049v6.356h6.82zM48.272 5.021v22.956c-1.664 0-3.36 0-4.991 0.066v-23.022h-5.157v-4.99h15.336v4.99zM32.736 16.631c-2.195 0-4.791 0-6.654 0.101v7.418c2.928-0.2 5.855-0.432 8.816-0.532v4.791l-13.805 1.099v-29.476h13.804v4.99h-8.815v6.721c1.93 0 4.891-0.1 6.654-0.1v4.991zM5.089 13.837v17.432c-1.795 0.2-3.393 0.433-5.089 0.699v-31.937h4.758l6.487 18.132v-18.132h4.991v29.874c-1.763 0.3-3.56 0.4-5.456 0.665z"></path>
</symbol>
<symbol id="icon-amazon" viewBox="0 0 106 32">
<path fill="#dde0e4" style="fill: #dde0e4" d="M22.783 7.544v10.274c0 0.347-0.281 0.628-0.628 0.628v0h-3.243c-0.347-0-0.628-0.281-0.628-0.628v-16.711c0-0.347 0.281-0.628 0.628-0.628v0h3.001c0.347 0 0.628 0.281 0.628 0.628v0 2.353s1.073-3.357 4.257-3.357c0 0 3.149-0.381 4.43 3.115 0 0 1.073-3.115 4.326-3.115 0 0 4.838-0.288 4.838 4.718l0.037 2.757v10.274c0 0.347-0.281 0.628-0.628 0.628h-3.243c-0.347-0-0.628-0.281-0.628-0.628v-0l-0.030-11.208c0.092-2.538-1.961-2.353-1.961-2.353-2.584 0.046-2.335 3.288-2.335 3.288v10.274c0 0.347-0.281 0.628-0.628 0.628v0h-3.243c-0.347-0-0.628-0.281-0.628-0.628v-10.955s0.19-2.63-2.118-2.63c0 0-2.284-0.3-2.203 3.276zM106.383 7.513v10.273c-0 0.347-0.281 0.628-0.628 0.628h-0l-3.373 0.065c-0.347-0-0.628-0.281-0.628-0.628v-10.954s0.19-2.63-2.117-2.63c0 0-2.204-0.109-2.204 4.015v9.535c-0 0.347-0.281 0.628-0.628 0.628h-3.243c-0.347-0-0.628-0.281-0.628-0.628v-16.711c0-0.347 0.281-0.628 0.628-0.628h3.001c0.347 0 0.628 0.281 0.628 0.628v0 2.353s1.073-3.357 4.257-3.357c0 0 3.411-0.517 4.559 3.050 0-0 0.376 0.736 0.376 4.36zM82.966 0.034c-4.147 0-7.51 3.495-7.51 9.379 0 5.18 2.596 9.379 7.51 9.379 4.637 0 7.51-4.199 7.51-9.379 0-5.779-3.362-9.379-7.51-9.379zM85.584 9.621c0 2.215-0.277 3.392-0.277 3.392-0.394 2.341-2.094 2.345-2.344 2.332-0.27 0.011-1.985-0.014-2.339-2.332 0 0-0.277-1.177-0.277-3.392v-0.369c0-2.215 0.277-3.392 0.277-3.392 0.355-2.319 2.069-2.343 2.339-2.333 0.251-0.012 1.95-0.009 2.344 2.333 0 0 0.277 1.177 0.277 3.392zM73.574 3.437v-2.398c-0-0.347-0.281-0.628-0.628-0.628h-10.72c-0.347 0-0.628 0.281-0.628 0.628v0 2.379c0 0.347 0.281 0.628 0.628 0.628h5.592l-6.619 9.602s-0.261 0.389-0.252 0.819v2.921s-0.043 1.001 1.093 0.42c0 0 2.017-1.219 5.4-1.219 0 0 3.34-0.042 5.567 1.324 0 0 0.924 0.42 0.924-0.504v-2.542s0.084-0.673-0.798-1.093c0 0-2.563-1.408-5.925-1.177zM15.781 15.457l-1.015-1.545c-0.323-0.577-0.3-1.223-0.3-1.223v-7.129c0.138-6.16-6.691-5.629-6.691-5.629-6.071 0-6.968 4.725-6.968 4.725-0.253 0.95 0.483 0.973 0.483 0.973l2.967 0.301s0.506 0.116 0.69-0.486c0 0 0.391-2.061 2.575-2.061 2.377 0 2.353 2.040 2.353 2.040v1.708c-4.745 0.159-6.945 1.476-6.945 1.476-2.93 1.661-2.746 4.961-2.746 4.961 0 5.376 5.122 5.145 5.122 5.145 3.276 0 5.214-2.399 5.214-2.399 0.577 1.016 1.638 1.984 1.638 1.984 0.531 0.576 1.084 0.092 1.084 0.092l2.4-2.053c0.53-0.393 0.138-0.877 0.138-0.877zM6.905 15.391c-1.541 0-2.114-1.531-1.858-3.036s1.586-2.688 4.828-2.653v0.915c0.115 3.997-1.687 4.774-2.97 4.774zM58.879 15.457l-1.015-1.545c-0.323-0.577-0.3-1.223-0.3-1.223v-7.129c0.138-6.16-6.691-5.629-6.691-5.629-6.071 0-6.968 4.725-6.968 4.725-0.253 0.95 0.483 0.973 0.483 0.973l2.967 0.301s0.506 0.116 0.69-0.486c0 0 0.391-2.061 2.575-2.061 2.377 0 2.352 2.040 2.352 2.040v1.708c-4.745 0.159-6.945 1.476-6.945 1.476-2.93 1.661-2.746 4.961-2.746 4.961 0 5.376 5.122 5.145 5.122 5.145 3.276 0 5.214-2.399 5.214-2.399 0.577 1.016 1.638 1.984 1.638 1.984 0.531 0.576 1.085 0.092 1.085 0.092l2.399-2.053c0.531-0.393 0.139-0.877 0.139-0.877zM50.003 15.391c-1.541 0-2.114-1.531-1.858-3.036s1.586-2.688 4.827-2.653v0.915c0.115 3.997-1.686 4.774-2.969 4.774z"></path>
<path fill="#dde0e4" style="fill: #dde0e4" d="M67.045 28.951s-0.271 0.472 0.062 0.578c0 0 0.377 0.147 0.846-0.289 0 0 3.424-2.991 3.507-8.438 0 0 0.025-0.68-0.248-0.866 0 0-1.073-0.949-4.931-0.66 0 0-3.363 0.227-5.199 1.857 0 0-0.165 0.144-0.165 0.33 0 0-0.040 0.401 0.97 0.227 0 0 3.363-0.475 5.364-0.227 0 0 1.032 0.124 1.321 0.475 0 0 0.475 0.392 0.227 1.691 0 0.001-0.681 3.301-1.754 5.323z"></path>
<path fill="#dde0e4" style="fill: #dde0e4" d="M66.367 23.726s0.502 0.651-0.308 1.212c0 0-8.657 6.924-23.192 6.924 0 0-14.962 0.738-27.456-10.613 0 0-0.438-0.385-0.166-0.742 0 0 0.243-0.329 0.872 0.029 0 0 11.753 7.323 27.188 7.323 0 0 10.728 0.415 21.734-4.291 0 0 0.877-0.454 1.328 0.158z"></path>
</symbol>
<symbol id="icon-spotify" viewBox="0 0 103 32">
<path fill="#dde0e4" style="fill: var(--color7, #dde0e4)" d="M15.999 0.001c-8.836 0-15.999 7.163-15.999 15.999s7.163 15.999 15.999 15.999 15.999-7.163 15.999-15.999c0-8.837-7.163-15.999-15.999-15.999zM23.287 23.121c-0.188 0.294-0.513 0.486-0.883 0.486-0.209 0-0.403-0.061-0.566-0.166l0.004 0.002c-2.706-1.721-5.785-2.216-8.383-2.215-2.779-0.002-4.977 0.567-5.439 0.698-0.066 0.019-0.089 0.026-0.089 0.026h0.001c-0.092 0.029-0.198 0.046-0.308 0.046-0.578 0-1.047-0.469-1.047-1.047 0-0.468 0.307-0.864 0.731-0.998l0.007-0.002c0.063-0.018 2.647-0.816 6.145-0.817 2.851 0.001 6.337 0.532 9.505 2.542 0.293 0.189 0.485 0.513 0.485 0.883 0 0.208-0.061 0.402-0.166 0.565l0.003-0.004zM25.364 18.695c-0.225 0.376-0.63 0.624-1.093 0.624-0.239 0-0.462-0.066-0.653-0.18l0.006 0.003c-3.574-2.113-7.256-2.688-10.203-2.688-2.984-0.001-5.192 0.595-5.639 0.727-0.064 0.019-0.081 0.025-0.081 0.025-0.112 0.036-0.241 0.056-0.375 0.056-0.702 0-1.271-0.569-1.271-1.271 0-0.555 0.356-1.028 0.853-1.201l0.009-0.003c0.085-0.026 2.711-0.873 6.504-0.875 3.269-0.001 7.429 0.637 11.496 3.041 0.376 0.225 0.624 0.631 0.624 1.094 0 0.238-0.066 0.462-0.18 0.652l0.003-0.006zM26.344 14.491c-0.254 0-0.512-0.064-0.748-0.197-3.98-2.25-8.207-2.88-11.66-2.88-3.619-0.001-6.357 0.696-6.92 0.853-0.081 0.023-0.105 0.030-0.105 0.030-0.133 0.042-0.286 0.066-0.445 0.066-0.683 0-1.262-0.45-1.455-1.069l-0.003-0.011c-0.042-0.133-0.066-0.286-0.066-0.445 0-0.683 0.45-1.262 1.069-1.456l0.011-0.003c0.096-0.027 3.336-1.012 7.915-1.015 3.812 0.001 8.578 0.689 13.16 3.274 0.467 0.267 0.776 0.761 0.776 1.328 0 0.842-0.683 1.524-1.524 1.524-0.001 0-0.002 0-0.003 0h0zM55.598 11.972c-2.848 0-5.045 2.61-5.045 5.83s1.981 5.83 5.045 5.83c2.848 0 5.157-2.61 5.157-5.83s-2.309-5.83-5.157-5.83zM54.944 21.091c-1.688 0-2.971-1.472-2.971-3.289s1.283-3.289 2.971-3.289c1.824 0 2.971 1.472 2.971 3.289s-1.208 3.289-2.971 3.289z"></path>
<path fill="##dde0e4" style="fill: var(--color7, #dde0e4)" d="M49.226 12.234h2.84v2.149l-0.635 2.093v2.915l0.654 2.41v4.915h-2.878zM67.482 11.96c-3.275 0-5.93 2.61-5.93 5.83s2.655 5.83 5.93 5.83 5.93-2.61 5.93-5.83-2.655-5.83-5.93-5.83zM67.47 21.153c-1.741 0-3.152-1.495-3.152-3.339s1.411-3.338 3.152-3.338c1.74 0 3.151 1.495 3.151 3.338s-1.411 3.339-3.151 3.339zM81.833 12.209h2.89v11.236h-2.89z"></path>
<path fill="#dde0e4" style="fill: var(--color7, #dde0e4)" d="M85.096 9.045c0 0.977-0.792 1.769-1.769 1.769s-1.769-0.792-1.769-1.769c0-0.977 0.792-1.769 1.769-1.769s1.769 0.792 1.769 1.769z"></path>
<path fill="#dde0e4" style="fill: var(--color7, #dde0e4)" d="M90.079 11.661v11.747h-2.89v-11.433s-0.257-4.134 3.613-4.051c0 0 1.146 0.025 2.068 0.374v2.412s-0.722-0.285-1.694-0.294c0 0-1.112-0.036-1.097 1.246zM77.834 19.88v-10.612h-2.89v11.026s-0.217 3.52 3.613 3.286c0 0 1.106 0 2.068-0.609v-2.339s-0.722 0.416-1.694 0.424c0 0-1.138 0.030-1.097-1.176z"></path>
<path fill="#dde0e4" style="fill: var(--color7, #dde0e4)" d="M99.998 12.209l-2.668 7.723-2.969-7.723h-8.492v2.491h6.478l3.563 8.421c-0.297 1.271-1.321 1.196-1.321 1.196-0.723 0-1.52-0.498-1.52-0.498l-0.972 2.093c0.781 0.726 2.691 0.822 2.691 0.822 2.84 0 3.662-2.79 3.662-2.79l4.509-11.735zM73.594 12.215h7.108v2.49h-7.108zM46.329 12.583s-1.869-1.495-3.862-1.495c0 0-2.017-0.104-2.118 1.42 0 0-0.103 1.286 1.362 1.655 0 0 3.59 1.069 4.492 1.507 0 0 2.201 0.922 2.069 3.765 0 0 0.016 4.135-5.357 4.186 0 0-3.687 0.1-6.154-2.516l1.744-1.968s1.943 1.894 4.559 1.894c0 0 2.087 0.070 2.317-1.495 0 0 0.261-1.387-1.719-1.844 0 0-3.065-0.772-4.061-1.271 0 0-2.279-0.821-2.192-3.762 0 0 0.107-4.231 5.232-4.161 0 0 2.966-0.097 5.232 1.943z"></path>
</symbol>
<symbol id="icon-discord" viewBox="0 0 137 32">
<path fill="#dde0e4" style="fill: var(--color8, #dde0e4)" d="M19.925 12.999c-1.072 0-1.919 0.922-1.919 2.070s0.865 2.070 1.919 2.070c1.072 0 1.919-0.922 1.919-2.070s-0.865-2.070-1.919-2.070zM13.057 12.999c-1.072 0-1.919 0.922-1.919 2.070s0.865 2.070 1.919 2.070c1.072 0 1.919-0.922 1.919-2.070 0.019-1.148-0.847-2.070-1.919-2.070z"></path>
<path fill="#dde0e4" style="fill: var(--color8, #dde0e4)" d="M29.069-2.655h-25.212c-2.126 0-3.857 1.731-3.857 3.857v25.212c0 2.126 1.731 3.857 3.857 3.857h21.336l-0.997-3.443 2.408 2.22 2.277 2.088 4.064 3.518v-33.452c-0.019-2.126-1.75-3.857-3.876-3.857zM21.806 21.71s-0.677-0.809-1.242-1.505c2.465-0.696 3.405-2.22 3.405-2.22-0.771 0.508-1.505 0.865-2.164 1.11-0.941 0.395-1.844 0.64-2.728 0.809-1.806 0.339-3.462 0.245-4.873-0.019-1.072-0.207-1.994-0.489-2.766-0.809-0.433-0.169-0.903-0.376-1.373-0.64-0.056-0.038-0.113-0.056-0.169-0.094-0.038-0.019-0.056-0.038-0.075-0.038-0.339-0.188-0.527-0.32-0.527-0.32s0.903 1.486 3.293 2.201c-0.564 0.715-1.261 1.543-1.261 1.543-4.158-0.132-5.738-2.841-5.738-2.841 0-6.002 2.709-10.875 2.709-10.875 2.709-2.013 5.268-1.957 5.268-1.957l0.188 0.226c-3.387 0.96-4.929 2.446-4.929 2.446s0.414-0.226 1.11-0.527c2.013-0.884 3.612-1.11 4.271-1.185 0.113-0.019 0.207-0.038 0.32-0.038 1.148-0.151 2.446-0.188 3.801-0.038 1.787 0.207 3.706 0.734 5.663 1.787 0 0-1.486-1.411-4.685-2.371l0.263-0.301s2.578-0.056 5.268 1.957c0 0 2.709 4.873 2.709 10.875 0-0.019-1.58 2.691-5.738 2.822zM50.216 5.398h-6.246v7.018l4.158 3.744v-6.811h2.22c1.411 0 2.107 0.677 2.107 1.769v5.212c0 1.091-0.658 1.825-2.107 1.825h-6.397v3.97h6.246c3.349 0.019 6.491-1.656 6.491-5.494v-5.607c0.019-3.913-3.123-5.626-6.472-5.626zM82.954 16.63v-5.757c0-2.070 3.725-2.54 4.854-0.47l3.443-1.392c-1.355-2.973-3.819-3.838-5.87-3.838-3.349 0-6.66 1.938-6.66 5.701v5.757c0 3.801 3.311 5.701 6.585 5.701 2.107 0 4.628-1.035 6.021-3.744l-3.688-1.693c-0.903 2.314-4.685 1.75-4.685-0.263zM71.571 11.663c-1.298-0.282-2.164-0.753-2.22-1.562 0.075-1.938 3.067-2.013 4.817-0.151l2.766-2.126c-1.731-2.107-3.688-2.672-5.701-2.672-3.067 0-6.040 1.731-6.040 5.005 0 3.18 2.446 4.892 5.136 5.306 1.373 0.188 2.897 0.734 2.86 1.674-0.113 1.787-3.801 1.693-5.475-0.339l-2.672 2.502c1.562 2.013 3.688 3.029 5.682 3.029 3.067 0 6.472-1.769 6.604-5.005 0.188-4.083-2.785-5.118-5.757-5.663zM58.965 22.105h4.214v-16.707h-4.214zM130.028 5.398h-6.246v7.018l4.158 3.744v-6.811h2.22c1.411 0 2.107 0.677 2.107 1.769v5.212c0 1.091-0.659 1.825-2.107 1.825h-6.397v3.97h6.265c3.349 0.019 6.491-1.656 6.491-5.494v-5.607c0-3.913-3.142-5.626-6.491-5.626zM99.379 5.172c-3.462 0-6.905 1.881-6.905 5.738v5.701c0 3.819 3.462 5.738 6.943 5.738 3.462 0 6.905-1.919 6.905-5.738v-5.701c0-3.838-3.481-5.738-6.943-5.738zM102.088 16.611c0 1.204-1.355 1.825-2.691 1.825-1.355 0-2.709-0.583-2.709-1.825v-5.701c0-1.223 1.317-1.881 2.634-1.881 1.373 0 2.766 0.583 2.766 1.881zM121.448 10.911c-0.094-3.913-2.766-5.494-6.209-5.494h-6.679v16.707h4.271v-5.306h0.753l3.876 5.306h5.268l-4.553-5.738c2.013-0.64 3.274-2.389 3.274-5.475zM115.315 13.168h-2.484v-3.819h2.484c2.653 0 2.653 3.819 0 3.819z"></path>
</symbol>
</defs>
</svg>
